<svg xmlns="http://www.w3.org/2000/svg" viewBox="0 0 160 160" role="img" aria-label="リーフマスコット">
  <defs>
    <linearGradient id="body" x1="24" x2="135" y1="22" y2="137" gradientUnits="userSpaceOnUse">
      <stop stop-color="#b7ff8a"/>
      <stop offset=".52" stop-color="#6ff0ae"/>
      <stop offset="1" stop-color="#48c7ff"/>
    </linearGradient>
    <filter id="shadow" x="-20%" y="-20%" width="140%" height="150%">
      <feDropShadow dx="0" dy="10" stdDeviation="8" flood-color="#1c6b5c" flood-opacity=".25"/>
    </filter>
  </defs>
  <path fill="#ffe38a" d="M30 118C13 100 14 67 39 51c3-33 41-52 70-35 31 0 54 30 46 61 12 25-9 55-39 55-22 20-64 13-78-12l-8-2Z" opacity=".32"/>
  <path filter="url(#shadow)" fill="url(#body)" d="M83 18c34 8 57 35 57 67 0 34-26 60-61 60-32 0-58-22-58-54 0-38 33-64 62-73Z"/>
  <path fill="#49bf62" d="M77 17c14 13 16 29 11 44-17-9-26-22-11-44Z"/>
  <circle cx="61" cy="83" r="7" fill="#38415e"/>
  <circle cx="99" cy="83" r="7" fill="#38415e"/>
  <path fill="none" stroke="#38415e" stroke-linecap="round" stroke-width="7" d="M66 105c9 8 22 8 31 0"/>
  <circle cx="47" cy="97" r="9" fill="#ff93b2" opacity=".68"/>
  <circle cx="113" cy="97" r="9" fill="#ff93b2" opacity=".68"/>
</svg>
